<svg xmlns="http://www.w3.org/2000/svg" viewBox="0 0 64 64">
  <defs>
    <radialGradient id="bg" cx="50%" cy="30%" r="70%">
      <stop offset="0%" stop-color="#1a1a21"/>
      <stop offset="100%" stop-color="#08080a"/>
    </radialGradient>
    <radialGradient id="glow" cx="50%" cy="50%" r="50%">
      <stop offset="0%" stop-color="#fff8e8"/>
      <stop offset="40%" stop-color="#d4a053"/>
      <stop offset="100%" stop-color="#d4a053" stop-opacity="0"/>
    </radialGradient>
    <linearGradient id="amber" x1="0" y1="0" x2="0" y2="1">
      <stop offset="0%" stop-color="#e0b06a"/>
      <stop offset="100%" stop-color="#d4a053"/>
    </linearGradient>
    <linearGradient id="border-glow" x1="0" y1="0" x2="1" y2="1">
      <stop offset="0%" stop-color="#d4a053" stop-opacity="0.4"/>
      <stop offset="50%" stop-color="#d4a053" stop-opacity="0.1"/>
      <stop offset="100%" stop-color="#d4a053" stop-opacity="0"/>
    </linearGradient>
  </defs>

  <!-- Dark rounded square background -->
  <rect width="64" height="64" rx="14" fill="url(#bg)"/>
  <!-- Subtle amber border -->
  <rect width="64" height="64" rx="14" fill="none" stroke="url(#border-glow)" stroke-width="1.5"/>

  <!-- Letter E (left) - geometric bars -->
  <rect x="6" y="18" width="16" height="5" rx="1" fill="url(#amber)"/>
  <rect x="6" y="29" width="12" height="5" rx="1" fill="url(#amber)"/>
  <rect x="6" y="40" width="16" height="5" rx="1" fill="url(#amber)"/>
  <rect x="6" y="18" width="5" height="27" rx="1" fill="url(#amber)"/>

  <!-- Letter E (center) -->
  <rect x="25" y="18" width="16" height="5" rx="1" fill="url(#amber)"/>
  <rect x="25" y="29" width="12" height="5" rx="1" fill="url(#amber)"/>
  <rect x="25" y="40" width="16" height="5" rx="1" fill="url(#amber)"/>
  <rect x="25" y="18" width="5" height="27" rx="1" fill="url(#amber)"/>

  <!-- Letter T (right) - crossbar + stem -->
  <rect x="43" y="18" width="16" height="5" rx="1" fill="url(#amber)"/>
  <rect x="48.5" y="18" width="5" height="27" rx="1" fill="url(#amber)"/>

  <!-- E.T. glowing finger on top-right of T -->
  <circle cx="55" cy="14" r="7" fill="url(#glow)" opacity="0.85"/>
  <circle cx="55" cy="14" r="3.5" fill="#fff8e8"/>
</svg>
