<svg xmlns="http://www.w3.org/2000/svg" viewBox="0 0 64 64">
  <defs>
    <radialGradient id="bg" cx="50%" cy="30%" r="70%">
      <stop offset="0%" stop-color="#60a5fa"/>
      <stop offset="100%" stop-color="#1d4ed8"/>
    </radialGradient>
    <radialGradient id="glow" cx="50%" cy="50%" r="50%">
      <stop offset="0%" stop-color="#ffffff"/>
      <stop offset="50%" stop-color="#bfdbfe"/>
      <stop offset="100%" stop-color="#60a5fa" stop-opacity="0"/>
    </radialGradient>
  </defs>

  <!-- Rounded square background -->
  <rect width="64" height="64" rx="14" fill="url(#bg)"/>

  <!-- Letter E (left) - geometric bars -->
  <rect x="6" y="18" width="16" height="5" rx="1" fill="#fff"/>
  <rect x="6" y="29" width="12" height="5" rx="1" fill="#fff"/>
  <rect x="6" y="40" width="16" height="5" rx="1" fill="#fff"/>
  <rect x="6" y="18" width="5" height="27" rx="1" fill="#fff"/>

  <!-- Letter E (center) -->
  <rect x="25" y="18" width="16" height="5" rx="1" fill="#fff"/>
  <rect x="25" y="29" width="12" height="5" rx="1" fill="#fff"/>
  <rect x="25" y="40" width="16" height="5" rx="1" fill="#fff"/>
  <rect x="25" y="18" width="5" height="27" rx="1" fill="#fff"/>

  <!-- Letter T (right) - crossbar + stem -->
  <rect x="43" y="18" width="16" height="5" rx="1" fill="#fff"/>
  <rect x="48.5" y="18" width="5" height="27" rx="1" fill="#fff"/>

  <!-- E.T. glowing finger on top-right of T -->
  <circle cx="55" cy="14" r="7" fill="url(#glow)" opacity="0.85"/>
  <circle cx="55" cy="14" r="3.5" fill="#fff"/>
</svg>
